<svg width="64" height="64" viewBox="0 0 64 64" fill="none" xmlns="http://www.w3.org/2000/svg">
<g clip-path="url(#paint0_diamond_10874_8679_clip_path)" data-figma-skip-parse="true"><g transform="matrix(-0.0509683 0.0655662 -0.064536 -0.100009 49.4424 10.262)"><rect x="0" y="0" width="905.146" height="403.243" fill="url(#paint0_diamond_10874_8679)" opacity="1" shape-rendering="crispEdges"/><rect x="0" y="0" width="905.146" height="403.243" transform="scale(1 -1)" fill="url(#paint0_diamond_10874_8679)" opacity="1" shape-rendering="crispEdges"/><rect x="0" y="0" width="905.146" height="403.243" transform="scale(-1 1)" fill="url(#paint0_diamond_10874_8679)" opacity="1" shape-rendering="crispEdges"/><rect x="0" y="0" width="905.146" height="403.243" transform="scale(-1)" fill="url(#paint0_diamond_10874_8679)" opacity="1" shape-rendering="crispEdges"/></g></g><path d="M40.2266 23.6221L31.5771 28.9189L30.1357 21.2676L21.1992 40.3965C26.8689 36.1782 39.1886 27.0947 43.1094 24.5049C48.0103 21.2676 49.1638 21.5619 57.8125 21.2676C64.7309 21.0322 62.8092 22.7392 60.9834 23.6221C45.1275 32.451 12.9748 59.1621 11.6855 59.8203C10.5325 60.4091 0.15441 76.3004 11.3975 41.5742C20.392 13.793 31.8658 2.72725 36.4785 0.666992L40.2266 23.6221ZM44.2617 37.4541C45.6071 41.5744 48.701 51.4041 50.3154 57.7607C52.3331 65.7061 43.6848 55.994 40.5137 53.6396C37.977 51.7559 35.8049 46.3811 35.0361 43.9287L44.2617 37.4541ZM12.4326 29.4961C11.7748 30.6712 10.1667 30.8731 9.23828 29.8975L1.30566 21.5615H16.874L12.4326 29.4961Z" data-figma-gradient-fill="{&#34;type&#34;:&#34;GRADIENT_DIAMOND&#34;,&#34;stops&#34;:[{&#34;color&#34;:{&#34;r&#34;:0.99215686321258545,&#34;g&#34;:0.99215686321258545,&#34;b&#34;:0.65098041296005249,&#34;a&#34;:1.0},&#34;position&#34;:0.0},{&#34;color&#34;:{&#34;r&#34;:0.95294117927551270,&#34;g&#34;:0.76470589637756348,&#34;b&#34;:0.41960784792900085,&#34;a&#34;:1.0},&#34;position&#34;:0.19798721373081207},{&#34;color&#34;:{&#34;r&#34;:0.97254902124404907,&#34;g&#34;:0.87450981140136719,&#34;b&#34;:0.52549022436141968,&#34;a&#34;:1.0},&#34;position&#34;:0.30100849270820618},{&#34;color&#34;:{&#34;r&#34;:0.98823529481887817,&#34;g&#34;:0.97254902124404907,&#34;b&#34;:0.60000002384185791,&#34;a&#34;:1.0},&#34;position&#34;:0.45111310482025146},{&#34;color&#34;:{&#34;r&#34;:0.95294117927551270,&#34;g&#34;:0.76078432798385620,&#34;b&#34;:0.41960784792900085,&#34;a&#34;:1.0},&#34;position&#34;:0.52590322494506836},{&#34;color&#34;:{&#34;r&#34;:0.97254902124404907,&#34;g&#34;:0.87450981140136719,&#34;b&#34;:0.52156865596771240,&#34;a&#34;:1.0},&#34;position&#34;:0.61136704683303833},{&#34;color&#34;:{&#34;r&#34;:0.76862746477127075,&#34;g&#34;:0.63137257099151611,&#34;b&#34;:0.34509804844856262,&#34;a&#34;:1.0},&#34;position&#34;:0.72539317607879639},{&#34;color&#34;:{&#34;r&#34;:0.95294117927551270,&#34;g&#34;:0.75294119119644165,&#34;b&#34;:0.42352941632270813,&#34;a&#34;:1.0},&#34;position&#34;:0.82034057378768921}],&#34;stopsVar&#34;:[{&#34;color&#34;:{&#34;r&#34;:0.99215686321258545,&#34;g&#34;:0.99215686321258545,&#34;b&#34;:0.65098041296005249,&#34;a&#34;:1.0},&#34;position&#34;:0.0},{&#34;color&#34;:{&#34;r&#34;:0.95294117927551270,&#34;g&#34;:0.76470589637756348,&#34;b&#34;:0.41960784792900085,&#34;a&#34;:1.0},&#34;position&#34;:0.19798721373081207},{&#34;color&#34;:{&#34;r&#34;:0.97254902124404907,&#34;g&#34;:0.87450981140136719,&#34;b&#34;:0.52549022436141968,&#34;a&#34;:1.0},&#34;position&#34;:0.30100849270820618},{&#34;color&#34;:{&#34;r&#34;:0.98823529481887817,&#34;g&#34;:0.97254902124404907,&#34;b&#34;:0.60000002384185791,&#34;a&#34;:1.0},&#34;position&#34;:0.45111310482025146},{&#34;color&#34;:{&#34;r&#34;:0.95294117927551270,&#34;g&#34;:0.76078432798385620,&#34;b&#34;:0.41960784792900085,&#34;a&#34;:1.0},&#34;position&#34;:0.52590322494506836},{&#34;color&#34;:{&#34;r&#34;:0.97254902124404907,&#34;g&#34;:0.87450981140136719,&#34;b&#34;:0.52156865596771240,&#34;a&#34;:1.0},&#34;position&#34;:0.61136704683303833},{&#34;color&#34;:{&#34;r&#34;:0.76862746477127075,&#34;g&#34;:0.63137257099151611,&#34;b&#34;:0.34509804844856262,&#34;a&#34;:1.0},&#34;position&#34;:0.72539317607879639},{&#34;color&#34;:{&#34;r&#34;:0.95294117927551270,&#34;g&#34;:0.75294119119644165,&#34;b&#34;:0.42352941632270813,&#34;a&#34;:1.0},&#34;position&#34;:0.82034057378768921}],&#34;transform&#34;:{&#34;m00&#34;:-101.93667602539062,&#34;m01&#34;:-129.07200622558594,&#34;m02&#34;:164.94676208496094,&#34;m10&#34;:131.13230895996094,&#34;m11&#34;:-200.01783752441406,&#34;m12&#34;:44.704795837402344},&#34;opacity&#34;:1.0,&#34;blendMode&#34;:&#34;NORMAL&#34;,&#34;visible&#34;:true}"/>
<defs>
<clipPath id="paint0_diamond_10874_8679_clip_path"><path d="M40.2266 23.6221L31.5771 28.9189L30.1357 21.2676L21.1992 40.3965C26.8689 36.1782 39.1886 27.0947 43.1094 24.5049C48.0103 21.2676 49.1638 21.5619 57.8125 21.2676C64.7309 21.0322 62.8092 22.7392 60.9834 23.6221C45.1275 32.451 12.9748 59.1621 11.6855 59.8203C10.5325 60.4091 0.15441 76.3004 11.3975 41.5742C20.392 13.793 31.8658 2.72725 36.4785 0.666992L40.2266 23.6221ZM44.2617 37.4541C45.6071 41.5744 48.701 51.4041 50.3154 57.7607C52.3331 65.7061 43.6848 55.994 40.5137 53.6396C37.977 51.7559 35.8049 46.3811 35.0361 43.9287L44.2617 37.4541ZM12.4326 29.4961C11.7748 30.6712 10.1667 30.8731 9.23828 29.8975L1.30566 21.5615H16.874L12.4326 29.4961Z"/></clipPath><linearGradient id="paint0_diamond_10874_8679" x1="0" y1="0" x2="500" y2="500" gradientUnits="userSpaceOnUse">
<stop stop-color="#FDFDA6"/>
<stop offset="0.197987" stop-color="#F3C36B"/>
<stop offset="0.301008" stop-color="#F8DF86"/>
<stop offset="0.451113" stop-color="#FCF899"/>
<stop offset="0.525903" stop-color="#F3C26B"/>
<stop offset="0.611367" stop-color="#F8DF85"/>
<stop offset="0.725393" stop-color="#C4A158"/>
<stop offset="0.820341" stop-color="#F3C06C"/>
</linearGradient>
</defs>
</svg>
